MulatAbay-Italic.ufo
<glyph name="quotedbl" format="2">
  <advance width="655"/>
  <unicode hex="0022"/>
  <note>
uni0022
</note>
  <outline>
    <contour>
      <point x="399" y="1042" type="line"/>
      <point x="500" y="1042" type="line"/>
      <point x="603" y="1400" type="line"/>
      <point x="627" y="1536" type="line"/>
      <point x="486" y="1536" type="line"/>
    </contour>
    <contour>
      <point x="129" y="1042" type="line"/>
      <point x="230" y="1042" type="line"/>
      <point x="333" y="1400" type="line"/>
      <point x="357" y="1536" type="line"/>
      <point x="216" y="1536" type="line"/>
    </contour>
  </outline>
</glyph>
<glyph name="numbersign" format="2">
  <advance width="1261"/>
  <unicode hex="0023"/>
  <note>
uni0023
</note>
  <outline>
    <contour>
      <point x="87" y="0" type="line"/>
      <point x="230" y="0" type="line"/>
      <point x="383" y="410" type="line"/>
      <point x="647" y="410" type="line"/>
      <point x="494" y="0" type="line"/>
      <point x="638" y="0" type="line"/>
      <point x="791" y="410" type="line"/>
      <point x="1042" y="410" type="line"/>
      <point x="1066" y="547" type="line"/>
      <point x="841" y="547" type="line"/>
      <point x="972" y="901" type="line"/>
      <point x="1203" y="901" type="line"/>
      <point x="1228" y="1040" type="line"/>
      <point x="1024" y="1040" type="line"/>
      <point x="1179" y="1456" type="line"/>
      <point x="1035" y="1456" type="line"/>
      <point x="880" y="1040" type="line"/>
      <point x="616" y="1040" type="line"/>
      <point x="771" y="1456" type="line"/>
      <point x="628" y="1456" type="line"/>
      <point x="473" y="1040" type="line"/>
      <point x="188" y="1040" type="line"/>
      <point x="163" y="901" type="line"/>
      <point x="421" y="901" type="line"/>
      <point x="290" y="547" type="line"/>
      <point x="25" y="547" type="line"/>
      <point x="1" y="410" type="line"/>
      <point x="240" y="410" type="line"/>
    </contour>
    <contour>
      <point x="433" y="547" type="line"/>
      <point x="564" y="901" type="line"/>
      <point x="828" y="901" type="line"/>
      <point x="697" y="547" type="line"/>
    </contour>
  </outline>
</glyph>
<glyph name="two" format="2">
  <advance width="1150"/>
  <unicode hex="0032"/>
  <note>
uni0032
</note>
  <outline>
    <contour>
      <point x="-70" y="0" type="line"/>
      <point x="884" y="0" type="line"/>
      <point x="911" y="151" type="line"/>
      <point x="180" y="151" type="line"/>
      <point x="644" y="574" type="line" smooth="yes"/>
      <point x="862" y="772"/>
      <point x="983" y="943"/>
      <point x="1009" y="1086" type="curve" smooth="yes"/>
      <point x="1050" y="1322"/>
      <point x="909" y="1476"/>
      <point x="638" y="1476" type="curve" smooth="yes"/>
      <point x="349" y="1476"/>
      <point x="131" y="1295"/>
      <point x="83" y="1027" type="curve"/>
      <point x="268" y="1027" type="line"/>
      <point x="301" y="1214"/>
      <point x="428" y="1324"/>
      <point x="612" y="1324" type="curve" smooth="yes"/>
      <point x="765" y="1324"/>
      <point x="846" y="1216"/>
      <point x="819" y="1064" type="curve" smooth="yes"/>
      <point x="799" y="951"/>
      <point x="736" y="862"/>
      <point x="556" y="693" type="curve" smooth="yes"/>
      <point x="-46" y="133" type="line"/>
    </contour>
  </outline>
</glyph>
<glyph name="at" format="2">
  <advance width="1839"/>
  <unicode hex="0040"/>
  <note>
uni0040
</note>
  <outline>
    <contour>
      <point x="624" y="-453" type="curve" smooth="yes"/>
      <point x="764" y="-453"/>
      <point x="920" y="-416"/>
      <point x="1012" y="-364" type="curve"/>
      <point x="995" y="-249" type="line"/>
      <point x="907" y="-296"/>
      <point x="770" y="-328"/>
      <point x="650" y="-328" type="curve" smooth="yes"/>
      <point x="194" y="-328"/>
      <point x="54" y="20"/>
      <point x="156" y="478" type="curve" smooth="yes"/>
      <point x="229" y="806"/>
      <point x="399" y="1067"/>
      <point x="631" y="1200" type="curve" smooth="yes"/>
      <point x="746" y="1266"/>
      <point x="871" y="1299"/>
      <point x="1005" y="1299" type="curve" smooth="yes"/>
      <point x="1451" y="1299"/>
      <point x="1624" y="1021"/>
      <point x="1507" y="502" type="curve" smooth="yes"/>
      <point x="1456" y="262"/>
      <point x="1327" y="98"/>
      <point x="1176" y="98" type="curve" smooth="yes"/>
      <point x="1078" y="98"/>
      <point x="1049" y="175"/>
      <point x="1089" y="329" type="curve" smooth="yes"/>
      <point x="1239" y="883" type="line"/>
      <point x="1147" y="967"/>
      <point x="1077" y="989"/>
      <point x="969" y="989" type="curve" smooth="yes"/>
      <point x="829" y="989"/>
      <point x="674" y="884"/>
      <point x="563" y="712" type="curve" smooth="yes"/>
      <point x="508" y="625"/>
      <point x="465" y="527"/>
      <point x="436" y="417" type="curve" smooth="yes"/>
      <point x="362" y="144"/>
      <point x="438" y="-20"/>
      <point x="628" y="-20" type="curve" smooth="yes"/>
      <point x="726" y="-20"/>
      <point x="832" y="35"/>
      <point x="924" y="148" type="curve"/>
      <point x="940" y="36"/>
      <point x="1010" y="-20"/>
      <point x="1135" y="-20" type="curve" smooth="yes"/>
      <point x="1376" y="-20"/>
      <point x="1563" y="179"/>
      <point x="1636" y="502" type="curve" smooth="yes"/>
      <point x="1718" y="879"/>
      <point x="1651" y="1170"/>
      <point x="1440" y="1319" type="curve" smooth="yes"/>
      <point x="1334" y="1394"/>
      <point x="1199" y="1431"/>
      <point x="1033" y="1431" type="curve" smooth="yes"/>
      <point x="714" y="1431"/>
      <point x="421" y="1265"/>
      <point x="222" y="973" type="curve" smooth="yes"/>
      <point x="122" y="826"/>
      <point x="52" y="661"/>
      <point x="11" y="478" type="curve" smooth="yes"/>
      <point x="-106" y="-59"/>
      <point x="87" y="-453"/>
    </contour>
    <contour>
      <point x="698" y="123" type="curve" smooth="yes"/>
      <point x="581" y="123"/>
      <point x="543" y="228"/>
      <point x="595" y="417" type="curve" smooth="yes"/>
      <point x="669" y="692"/>
      <point x="806" y="861"/>
      <point x="962" y="861" type="curve" smooth="yes"/>
      <point x="1005" y="861"/>
      <point x="1043" y="851"/>
      <point x="1077" y="832" type="curve"/>
      <point x="940" y="320" type="line"/>
      <point x="869" y="193"/>
      <point x="778" y="123"/>
    </contour>
  </outline>
</glyph>
<glyph name="F" format="2">
  <advance width="1132"/>
  <unicode hex="0046"/>
  <note>
uni0046
</note>
  <outline>
    <contour>
      <point x="-22" y="0" type="line"/>
      <point x="170" y="0" type="line"/>
      <point x="284" y="643" type="line"/>
      <point x="895" y="643" type="line"/>
      <point x="922" y="800" type="line"/>
      <point x="311" y="800" type="line"/>
      <point x="399" y="1298" type="line"/>
      <point x="1109" y="1298" type="line"/>
      <point x="1137" y="1456" type="line"/>
      <point x="235" y="1456" type="line"/>
    </contour>
  </outline>
</glyph>
<glyph name="M" format="2">
  <advance width="1788"/>
  <unicode hex="004D"/>
  <note>
uni004D
</note>
  <outline>
    <contour>
      <point x="-22" y="0" type="line"/>
      <point x="170" y="0" type="line"/>
      <point x="359" y="1176" type="line"/>
      <point x="628" y="0" type="line"/>
      <point x="775" y="0" type="line"/>
      <point x="1461" y="1179" type="line"/>
      <point x="1235" y="0" type="line"/>
      <point x="1427" y="0" type="line"/>
      <point x="1684" y="1456" type="line"/>
      <point x="1435" y="1456" type="line"/>
      <point x="749" y="268" type="line"/>
      <point x="483" y="1456" type="line"/>
      <point x="235" y="1456" type="line"/>
    </contour>
  </outline>
</glyph>
<glyph name="O" format="2">
  <advance width="1408"/>
  <unicode hex="004F"/>
  <note>
uni004F
</note>
  <outline>
    <contour>
      <point x="511" y="-20" type="curve" smooth="yes"/>
      <point x="745" y="-20"/>
      <point x="947" y="95"/>
      <point x="1080" y="308" type="curve" smooth="yes"/>
      <point x="1147" y="414"/>
      <point x="1193" y="538"/>
      <point x="1218" y="681" type="curve" smooth="yes"/>
      <point x="1235" y="773" type="line" smooth="yes"/>
      <point x="1285" y="1057"/>
      <point x="1224" y="1279"/>
      <point x="1066" y="1392" type="curve" smooth="yes"/>
      <point x="987" y="1448"/>
      <point x="889" y="1476"/>
      <point x="772" y="1476" type="curve" smooth="yes"/>
      <point x="543" y="1476"/>
      <point x="337" y="1359"/>
      <point x="202" y="1144" type="curve" smooth="yes"/>
      <point x="134" y="1037"/>
      <point x="88" y="913"/>
      <point x="64" y="773" type="curve" smooth="yes"/>
      <point x="45" y="668" type="line" smooth="yes"/>
      <point x="-1" y="393"/>
      <point x="63" y="177"/>
      <point x="221" y="65" type="curve" smooth="yes"/>
      <point x="299" y="8"/>
      <point x="396" y="-20"/>
    </contour>
    <contour>
      <point x="539" y="143" type="curve" smooth="yes"/>
      <point x="293" y="143"/>
      <point x="179" y="346"/>
      <point x="238" y="681" type="curve" smooth="yes"/>
      <point x="257" y="788" type="line" smooth="yes"/>
      <point x="319" y="1116"/>
      <point x="501" y="1311"/>
      <point x="743" y="1311" type="curve" smooth="yes"/>
      <point x="993" y="1311"/>
      <point x="1105" y="1120"/>
      <point x="1044" y="775" type="curve" smooth="yes"/>
      <point x="1025" y="667" type="line" smooth="yes"/>
      <point x="961" y="330"/>
      <point x="787" y="143"/>
    </contour>
  </outline>
</glyph>
<glyph name="bracketleft" format="2">
  <advance width="543"/>
  <unicode hex="005B"/>
  <note>
uni005B
</note>
  <outline>
    <contour>
      <point x="-100" y="-312" type="line"/>
      <point x="277" y="-312" type="line"/>
      <point x="304" y="-160" type="line"/>
      <point x="113" y="-160" type="line"/>
      <point x="408" y="1512" type="line"/>
      <point x="599" y="1512" type="line"/>
      <point x="626" y="1664" type="line"/>
      <point x="249" y="1664" type="line"/>
    </contour>
  </outline>
</glyph>
<glyph name="j" format="2">
  <advance width="489"/>
  <unicode hex="006A"/>
  <note>
uni006A
</note>
  <outline>
    <contour>
      <point x="-220" y="-437" type="curve" smooth="yes"/>
      <point x="-31" y="-437"/>
      <point x="81" y="-333"/>
      <point x="118" y="-125" type="curve" smooth="yes"/>
      <point x="331" y="1082" type="line"/>
      <point x="146" y="1082" type="line"/>
      <point x="-68" y="-129" type="line" smooth="yes"/>
      <point x="-87" y="-240"/>
      <point x="-138" y="-279"/>
      <point x="-221" y="-279" type="curve" smooth="yes"/>
      <point x="-256" y="-279"/>
      <point x="-283" y="-276"/>
      <point x="-304" y="-271" type="curve"/>
      <point x="-330" y="-419" type="line"/>
      <point x="-297" y="-431"/>
      <point x="-261" y="-437"/>
    </contour>
    <contour>
      <point x="267" y="1264" type="curve" smooth="yes"/>
      <point x="339" y="1264"/>
      <point x="385" y="1309"/>
      <point x="396" y="1369" type="curve" smooth="yes"/>
      <point x="406" y="1429"/>
      <point x="376" y="1476"/>
      <point x="304" y="1476" type="curve" smooth="yes"/>
      <point x="234" y="1476"/>
      <point x="188" y="1428"/>
      <point x="178" y="1369" type="curve" smooth="yes"/>
      <point x="167" y="1309"/>
      <point x="195" y="1264"/>
    </contour>
  </outline>
</glyph>
<glyph name="r" format="2">
  <advance width="693"/>
  <unicode hex="0072"/>
  <note>
uni0072
</note>
  <outline>
    <contour>
      <point x="-51" y="0" type="line"/>
      <point x="134" y="0" type="line"/>
      <point x="270" y="768" type="line"/>
      <point x="331" y="871"/>
      <point x="423" y="923"/>
      <point x="544" y="923" type="curve"/>
      <point x="634" y="916" type="line"/>
      <point x="664" y="1088" type="line"/>
      <point x="647" y="1097"/>
      <point x="621" y="1102"/>
      <point x="585" y="1102" type="curve" smooth="yes"/>
      <point x="473" y="1102"/>
      <point x="379" y="1054"/>
      <point x="301" y="957" type="curve"/>
      <point x="320" y="1082" type="line"/>
      <point x="140" y="1082" type="line"/>
    </contour>
  </outline>
</glyph>
<glyph name="y" format="2">
  <advance width="969"/>
  <unicode hex="0079"/>
  <note>
uni0079
</note>
  <outline>
    <contour>
      <point x="-80" y="-437" type="line"/>
      <point x="67" y="-437"/>
      <point x="190" y="-347"/>
      <point x="289" y="-167" type="curve"/>
      <point x="944" y="1082" type="line"/>
      <point x="746" y="1082" type="line"/>
      <point x="351" y="271" type="line"/>
      <point x="224" y="1082" type="line"/>
      <point x="22" y="1082" type="line"/>
      <point x="219" y="12" type="line"/>
      <point x="159" y="-98" type="line" smooth="yes"/>
      <point x="90" y="-233"/>
      <point x="20" y="-275"/>
      <point x="-155" y="-271" type="curve"/>
      <point x="-181" y="-421" type="line"/>
    </contour>
  </outline>
</glyph>
<glyph name="yen" format="2">
  <advance width="1075"/>
  <unicode hex="00A5"/>
  <note>
uni00A5
</note>
  <outline>
    <contour>
      <point x="246" y="0" type="line"/>
      <point x="439" y="0" type="line"/>
      <point x="496" y="322" type="line"/>
      <point x="820" y="322" type="line"/>
      <point x="842" y="446" type="line"/>
      <point x="518" y="446" type="line"/>
      <point x="547" y="611" type="line"/>
      <point x="871" y="611" type="line"/>
      <point x="893" y="736" type="line"/>
      <point x="632" y="736" type="line"/>
      <point x="1126" y="1456" type="line"/>
      <point x="913" y="1456" type="line"/>
      <point x="488" y="793" type="line"/>
      <point x="297" y="1456" type="line"/>
      <point x="81" y="1456" type="line"/>
      <point x="321" y="736" type="line"/>
      <point x="58" y="736" type="line"/>
      <point x="36" y="611" type="line"/>
      <point x="354" y="611" type="line"/>
      <point x="325" y="446" type="line"/>
      <point x="7" y="446" type="line"/>
      <point x="-15" y="322" type="line"/>
      <point x="303" y="322" type="line"/>
    </contour>
  </outline>
</glyph>
<glyph name="ordfeminine" format="2">
  <advance width="915"/>
  <unicode hex="00AA"/>
  <note>
uni00AA
</note>
  <outline>
    <contour>
      <point x="327" y="691" type="curve" smooth="yes"/>
      <point x="412" y="691"/>
      <point x="485" y="720"/>
      <point x="546" y="777" type="curve"/>
      <point x="546" y="752"/>
      <point x="548" y="728"/>
      <point x="552" y="705" type="curve"/>
      <point x="717" y="705" type="line"/>
      <point x="709" y="759"/>
      <point x="711" y="818"/>
      <point x="722" y="883" type="curve" smooth="yes"/>
      <point x="778" y="1199" type="line" smooth="yes"/>
      <point x="809" y="1378"/>
      <point x="717" y="1476"/>
      <point x="539" y="1476" type="curve" smooth="yes"/>
      <point x="357" y="1476"/>
      <point x="214" y="1380"/>
      <point x="189" y="1243" type="curve"/>
      <point x="348" y="1231" type="line"/>
      <point x="360" y="1299"/>
      <point x="423" y="1336"/>
      <point x="515" y="1336" type="curve" smooth="yes"/>
      <point x="597" y="1336"/>
      <point x="631" y="1291"/>
      <point x="615" y="1201" type="curve" smooth="yes"/>
      <point x="606" y="1149" type="line"/>
      <point x="498" y="1149" type="line" smooth="yes"/>
      <point x="268" y="1149"/>
      <point x="144" y="1066"/>
      <point x="118" y="918" type="curve" smooth="yes"/>
      <point x="94" y="781"/>
      <point x="168" y="691"/>
    </contour>
    <contour>
      <point x="390" y="828" type="curve" smooth="yes"/>
      <point x="307" y="828"/>
      <point x="271" y="859"/>
      <point x="282" y="922" type="curve" smooth="yes"/>
      <point x="294" y="990"/>
      <point x="363" y="1036"/>
      <point x="474" y="1037" type="curve" smooth="yes"/>
      <point x="586" y="1037" type="line"/>
      <point x="561" y="895" type="line"/>
      <point x="517" y="859"/>
      <point x="448" y="828"/>
    </contour>
  </outline>
</glyph>
<glyph name="comma-ethiopic" format="2">
  <advance width="556"/>
  <unicode hex="1363"/>
  <outline>
    <contour>
      <point x="199" y="932" type="line"/>
      <point x="538" y="932" type="line"/>
      <point x="560" y="1059" type="line"/>
      <point x="221" y="1059" type="line"/>
    </contour>
    <component base="period" xOffset="159" yOffset="200"/>
    <component base="period" xOffset="239" yOffset="627"/>
  </outline>
</glyph>
<glyph name="semicolon-ethiopic" format="2">
  <advance width="556"/>
  <unicode hex="1364"/>
  <outline>
    <contour>
      <point x="211" y="995" type="line"/>
      <point x="541" y="995" type="line"/>
      <point x="566" y="1133" type="line"/>
      <point x="236" y="1133" type="line"/>
    </contour>
    <contour>
      <point x="14" y="-62" type="line"/>
      <point x="318" y="-62" type="line"/>
      <point x="343" y="76" type="line"/>
      <point x="39" y="76" type="line"/>
    </contour>
    <component base="period" xOffset="201" yOffset="616"/>
    <component base="period" xOffset="127" yOffset="178"/>
  </outline>
</glyph>
<glyph name="prefacecolon-ethiopic" format="2">
  <advance width="730"/>
  <unicode hex="1366"/>
  <outline>
    <contour>
      <point x="239" y="547" type="line"/>
      <point x="519" y="547" type="line"/>
      <point x="539" y="665" type="line"/>
      <point x="259" y="665" type="line"/>
    </contour>
    <component base="period" xOffset="67" yOffset="192"/>
    <component base="period" xOffset="176" yOffset="760"/>
  </outline>
</glyph>
<glyph name="nine-ethiopic" format="2">
  <advance width="1357"/>
  <unicode hex="1371"/>
  <outline>
    <contour>
      <point x="442" y="-60" type="curve" smooth="yes"/>
      <point x="756" y="-60"/>
      <point x="936" y="148"/>
      <point x="1013" y="581" type="curve" smooth="yes"/>
      <point x="1055" y="821" type="line" smooth="yes"/>
      <point x="1093" y="1048"/>
      <point x="1079" y="1210"/>
      <point x="1007" y="1310" type="curve"/>
      <point x="853" y="1203" type="line"/>
      <point x="880.742" y="1158.613"/>
      <point x="893.662" y="1095.982"/>
      <point x="891.993" y="1013" type="curve"/>
      <point x="367.189" y="1013" type="line"/>
      <point x="407.965" y="1134.787"/>
      <point x="464.979" y="1214.632"/>
      <point x="543" y="1254" type="curve"/>
      <point x="440" y="1372" type="line"/>
      <point x="283" y="1282"/>
      <point x="184" y="1094"/>
      <point x="133" y="803" type="curve" smooth="yes"/>
      <point x="89" y="556" type="line" smooth="yes"/>
      <point x="22" y="147"/>
      <point x="131" y="-60"/>
    </contour>
    <contour>
      <point x="468" y="91" type="curve" smooth="yes"/>
      <point x="283" y="91"/>
      <point x="218" y="237"/>
      <point x="274" y="552" type="curve" smooth="yes"/>
      <point x="328.642" y="862" type="line"/>
      <point x="876.823" y="862" type="line"/>
      <point x="819" y="531" type="line" smooth="yes"/>
      <point x="761" y="227"/>
      <point x="651" y="91"/>
    </contour>
    <component base="_num.bar" xOffset="115"/>
  </outline>
</glyph>
<glyph name="underscoredbl" format="2">
  <advance width="933"/>
  <unicode hex="2017"/>
  <note>
uni2017
</note>
  <outline>
    <contour>
      <point x="-204" y="-151" type="line"/>
      <point x="712" y="-151" type="line"/>
      <point x="738" y="0" type="line"/>
      <point x="-178" y="0" type="line"/>
    </contour>
    <contour>
      <point x="-249" y="-405" type="line"/>
      <point x="667" y="-405" type="line"/>
      <point x="693" y="-254" type="line"/>
      <point x="-223" y="-254" type="line"/>
    </contour>
  </outline>
</glyph>
<glyph name="hyphenationpoint" format="2">
  <advance width="382"/>
  <unicode hex="2027"/>
  <note>
uni2027
</note>
  <outline>
    <contour>
      <point x="90" y="514" type="curve" smooth="yes"/>
      <point x="162" y="514"/>
      <point x="208" y="559"/>
      <point x="218" y="619" type="curve" smooth="yes"/>
      <point x="229" y="679"/>
      <point x="199" y="725"/>
      <point x="127" y="725" type="curve" smooth="yes"/>
      <point x="55" y="725"/>
      <point x="11" y="679"/>
      <point x="0" y="619" type="curve" smooth="yes"/>
      <point x="-10" y="559"/>
      <point x="18" y="514"/>
    </contour>
  </outline>
</glyph>
<glyph name="approxequal" format="2">
  <advance width="1154"/>
  <unicode hex="2248"/>
  <note>
uni2248
</note>
  <outline>
    <contour>
      <point x="731" y="697" type="curve" smooth="yes"/>
      <point x="820" y="697"/>
      <point x="905" y="733"/>
      <point x="984" y="806" type="curve"/>
      <point x="1018" y="996" type="line"/>
      <point x="937" y="911"/>
      <point x="851" y="868"/>
      <point x="761" y="868" type="curve" smooth="yes"/>
      <point x="709" y="868"/>
      <point x="663" y="878"/>
      <point x="623" y="899" type="curve" smooth="yes"/>
      <point x="484" y="977" type="line" smooth="yes"/>
      <point x="439" y="1000"/>
      <point x="389" y="1011"/>
      <point x="334" y="1010" type="curve" smooth="yes"/>
      <point x="246" y="1010"/>
      <point x="146" y="969"/>
      <point x="69" y="901" type="curve"/>
      <point x="36" y="712" type="line"/>
      <point x="115" y="792"/>
      <point x="216" y="840"/>
      <point x="304" y="840" type="curve" smooth="yes"/>
      <point x="357" y="841"/>
      <point x="406" y="834"/>
      <point x="446" y="811" type="curve" smooth="yes"/>
      <point x="593" y="728" type="line" smooth="yes"/>
      <point x="633" y="707"/>
      <point x="679" y="697"/>
    </contour>
    <contour>
      <point x="657" y="280" type="curve" smooth="yes"/>
      <point x="745" y="280"/>
      <point x="830" y="316"/>
      <point x="911" y="389" type="curve"/>
      <point x="944" y="578" type="line"/>
      <point x="861" y="493"/>
      <point x="775" y="450"/>
      <point x="687" y="450" type="curve" smooth="yes"/>
      <point x="633" y="450"/>
      <point x="586" y="461"/>
      <point x="544" y="483" type="curve" smooth="yes"/>
      <point x="409" y="560" type="line" smooth="yes"/>
      <point x="364" y="583"/>
      <point x="314" y="594"/>
      <point x="259" y="593" type="curve" smooth="yes"/>
      <point x="171" y="593"/>
      <point x="71" y="551"/>
      <point x="-5" y="483" type="curve"/>
      <point x="-38" y="294" type="line"/>
      <point x="40" y="374"/>
      <point x="142" y="422"/>
      <point x="230" y="422" type="curve" smooth="yes"/>
      <point x="285" y="423"/>
      <point x="335" y="412"/>
      <point x="380" y="389" type="curve" smooth="yes"/>
      <point x="518" y="311" type="line" smooth="yes"/>
      <point x="558" y="290"/>
      <point x="605" y="280"/>
    </contour>
  </outline>
</glyph>
<glyph name="_smart.aGlhat" format="2">
  <anchor x="198" y="1242" name="_aGlhat"/>
  <outline>
    <contour>
      <point x="373" y="1242" type="line"/>
      <point x="128" y="1536" type="line"/>
      <point x="-96" y="1536" type="line"/>
      <point x="224" y="1242" type="line"/>
    </contour>
  </outline>
</glyph>
<glyph name="_smart.da.caps" format="2">
  <advance width="1292"/>
  <anchor x="-32" y="38" name="_da.caps"/>
  <outline>
    <contour>
      <point x="702" y="0" type="curve"/>
      <point x="882" y="3" type="line"/>
      <point x="898" y="117"/>
      <point x="849" y="342"/>
      <point x="720" y="342" type="curve" smooth="yes"/>
      <point x="80" y="342" type="line"/>
      <point x="63" y="247" type="line"/>
      <point x="581" y="247" type="line" smooth="yes"/>
      <point x="710" y="247"/>
      <point x="708" y="92"/>
    </contour>
  </outline>
</glyph>
<glyph name="_smart.di" format="2">
  <anchor x="-173" y="224" name="_di"/>
  <outline>
    <contour>
      <point x="-197" y="348" type="line"/>
      <point x="-295" y="-74" type="line"/>
      <point x="-191" y="-74" type="line"/>
      <point x="-93" y="348" type="line"/>
    </contour>
    <contour>
      <point x="-68" y="-96" type="curve" smooth="yes"/>
      <point x="4" y="-96"/>
      <point x="50" y="-51"/>
      <point x="60" y="9" type="curve" smooth="yes"/>
      <point x="71" y="69"/>
      <point x="41" y="116"/>
      <point x="-31" y="116" type="curve" smooth="yes"/>
      <point x="-103" y="116"/>
      <point x="-148" y="69"/>
      <point x="-159" y="9" type="curve" smooth="yes"/>
      <point x="-169" y="-51"/>
      <point x="-140" y="-96"/>
    </contour>
  </outline>
</glyph>
<glyph name="_smart.du" format="2">
  <anchor x="-173" y="224" name="_du"/>
  <outline>
    <contour>
      <point x="-26" y="-61" type="line"/>
      <point x="-26" y="320" type="line"/>
      <point x="-148" y="320" type="line"/>
      <point x="-148" y="-61" type="line"/>
    </contour>
    <contour>
      <point x="112" y="122" type="curve" smooth="yes"/>
      <point x="184" y="122"/>
      <point x="230" y="167"/>
      <point x="240" y="227" type="curve" smooth="yes"/>
      <point x="251" y="287"/>
      <point x="221" y="334"/>
      <point x="149" y="334" type="curve" smooth="yes"/>
      <point x="77" y="334"/>
      <point x="32" y="287"/>
      <point x="21" y="227" type="curve" smooth="yes"/>
      <point x="11" y="167"/>
      <point x="40" y="122"/>
    </contour>
  </outline>
</glyph>
<glyph name="_smart.fa" format="2">
  <anchor x="252" y="54" name="_fa"/>
  <outline>
    <contour>
      <point x="257" y="551" type="line"/>
      <point x="-8" y="551" type="line"/>
      <point x="5" y="476" type="line"/>
      <point x="112" y="476" type="line"/>
      <point x="185" y="55" type="line"/>
      <point x="343" y="55" type="line"/>
    </contour>
  </outline>
</glyph>
<glyph name="_smart.he" format="2">
  <anchor x="-198" y="-41" name="_he"/>
  <outline>
    <contour>
      <point x="-327" y="-146" type="curve" smooth="yes"/>
      <point x="-255" y="-146"/>
      <point x="-209" y="-101"/>
      <point x="-198" y="-41" type="curve" smooth="yes"/>
      <point x="-187" y="19"/>
      <point x="-217" y="66"/>
      <point x="-289" y="66" type="curve" smooth="yes"/>
      <point x="-361" y="66"/>
      <point x="-406" y="19"/>
      <point x="-417" y="-41" type="curve" smooth="yes"/>
      <point x="-428" y="-101"/>
      <point x="-399" y="-146"/>
    </contour>
  </outline>
</glyph>
<glyph name="_smart.ho.ring.uniq" format="2">
  <anchor x="-1048" y="-61" name="_ho.ring.uniq"/>
  <outline>
    <contour>
      <point x="-922" y="-382" type="curve" smooth="yes"/>
      <point x="-769" y="-411"/>
      <point x="-594" y="-314"/>
      <point x="-513" y="-160" type="curve" smooth="yes"/>
      <point x="-431" y="-4"/>
      <point x="-481" y="138"/>
      <point x="-632" y="167" type="curve" smooth="yes"/>
      <point x="-785" y="196"/>
      <point x="-966" y="95"/>
      <point x="-1048" y="-61" type="curve" smooth="yes"/>
      <point x="-1128" y="-212"/>
      <point x="-1079" y="-353"/>
    </contour>
    <contour>
      <point x="-859" y="-351" type="curve" smooth="yes"/>
      <point x="-944" y="-333"/>
      <point x="-999" y="-257"/>
      <point x="-938" y="-140" type="curve" smooth="yes"/>
      <point x="-885" y="-42"/>
      <point x="-762" y="32"/>
      <point x="-661" y="14" type="curve" smooth="yes"/>
      <point x="-566" y="-5"/>
      <point x="-537" y="-101"/>
      <point x="-593" y="-205" type="curve" smooth="yes"/>
      <point x="-654" y="-322"/>
      <point x="-771" y="-366"/>
    </contour>
  </outline>
</glyph>
<glyph name="_smart.hu" format="2">
  <anchor x="-24" y="967" name="_hu"/>
  <outline>
    <contour>
      <point x="72" y="813" type="curve" smooth="yes"/>
      <point x="139" y="813"/>
      <point x="205" y="868"/>
      <point x="217" y="936" type="curve" smooth="yes"/>
      <point x="229" y="1003"/>
      <point x="182" y="1060"/>
      <point x="115" y="1060" type="curve" smooth="yes"/>
      <point x="47" y="1060"/>
      <point x="-18" y="1003"/>
      <point x="-30" y="936" type="curve" smooth="yes"/>
      <point x="-42" y="868"/>
      <point x="4" y="813"/>
    </contour>
  </outline>
</glyph>
<glyph name="_smart.raa.cap" format="2">
  <anchor x="821" y="295" name="_raa.cap"/>
  <outline>
    <contour>
      <point x="427" y="304" type="line"/>
      <point x="576" y="304" type="line"/>
      <point x="896" y="598" type="line"/>
      <point x="672" y="598" type="line"/>
    </contour>
  </outline>
</glyph>
<glyph name="_smart.ri.cap" format="2">
  <anchor x="821" y="295" name="_ri.cap"/>
  <outline>
    <contour>
      <point x="896" y="304" type="line"/>
      <point x="651" y="598" type="line"/>
      <point x="427" y="598" type="line"/>
      <point x="747" y="304" type="line"/>
    </contour>
  </outline>
</glyph>
<glyph name="_smart.ri" format="2">
  <anchor x="-117" y="284" name="_ri"/>
  <outline>
    <contour>
      <point x="-44" y="312" type="line"/>
      <point x="6" y="594" type="line"/>
      <point x="-240" y="594" type="line"/>
      <point x="-257" y="500" type="line"/>
      <point x="-80" y="500" type="line"/>
      <point x="-113" y="312" type="line"/>
    </contour>
  </outline>
</glyph>
<glyph name="_smart.ring" format="2">
  <anchor x="443" y="1025" name="_ring"/>
  <outline>
    <contour>
      <point x="358" y="1004" type="curve" smooth="yes"/>
      <point x="479" y="1004"/>
      <point x="588" y="1092"/>
      <point x="608" y="1208" type="curve" smooth="yes"/>
      <point x="629" y="1323"/>
      <point x="553" y="1416"/>
      <point x="430" y="1416" type="curve" smooth="yes"/>
      <point x="307" y="1416"/>
      <point x="199" y="1323"/>
      <point x="178" y="1208" type="curve" smooth="yes"/>
      <point x="158" y="1093"/>
      <point x="235" y="1004"/>
    </contour>
    <contour>
      <point x="373" y="1093" type="curve" smooth="yes"/>
      <point x="308" y="1093"/>
      <point x="266" y="1145"/>
      <point x="277" y="1208" type="curve" smooth="yes"/>
      <point x="289" y="1272"/>
      <point x="348" y="1326"/>
      <point x="414" y="1326" type="curve" smooth="yes"/>
      <point x="491" y="1326"/>
      <point x="519" y="1268"/>
      <point x="509" y="1210" type="curve" smooth="yes"/>
      <point x="499" y="1152"/>
      <point x="450" y="1093"/>
    </contour>
  </outline>
</glyph>
<glyph name="_smart.tsa.belt.caps" format="2">
  <anchor x="-41" y="755" name="_tsa.belt.caps"/>
  <outline>
    <contour>
      <point x="-373" y="681" type="line"/>
      <point x="372" y="681" type="line"/>
      <point x="399" y="832" type="line"/>
      <point x="-346" y="832" type="line"/>
    </contour>
  </outline>
</glyph>
<glyph name="_smart.ye.extend" format="2">
  <anchor x="174" y="-64" name="_haa.acute"/>
  <anchor x="369" y="0" name="_ye.extend"/>
  <outline>
    <contour>
      <point x="3" y="0" type="line"/>
      <point x="-49" y="-290" type="line"/>
      <point x="139" y="-290" type="line"/>
      <point x="191" y="0" type="line"/>
    </contour>
  </outline>
</glyph>
<glyph name="_smart.yu" format="2">
  <anchor x="149" y="726" name="_yu"/>
  <outline>
    <contour>
      <point x="92" y="741" type="line"/>
      <point x="527" y="741" type="line"/>
      <point x="554" y="892" type="line"/>
      <point x="119" y="892" type="line"/>
    </contour>
    <contour>
      <point x="332" y="641" type="line"/>
      <point x="767" y="641" type="line"/>
      <point x="794" y="792" type="line"/>
      <point x="359" y="792" type="line"/>
    </contour>
  </outline>
</glyph>
<glyph name="abesha.base" format="2">
  <advance width="1248"/>
  <anchor x="161" y="1292" name="aGlhat"/>
  <anchor x="794" y="-26" name="haa"/>
  <anchor x="188" y="1660" name="hat.left"/>
  <anchor x="367" y="1766" name="he.left.inner"/>
  <anchor x="784" y="45" name="hee"/>
  <anchor x="880" y="110" name="hi"/>
  <anchor x="87" y="-21" name="ho"/>
  <anchor x="1090" y="498" name="ho.ring"/>
  <anchor x="310" y="600" name="ho.ring.uniq"/>
  <anchor x="986" y="667" name="hu"/>
  <anchor x="758" y="-58" name="hwa"/>
  <outline>
    <contour>
      <point x="9" y="0" type="line"/>
      <point x="194" y="0" type="line"/>
      <point x="330" y="771" type="line"/>
      <point x="400" y="875"/>
      <point x="505" y="945"/>
      <point x="625" y="945" type="curve" smooth="yes"/>
      <point x="773" y="945"/>
      <point x="828" y="872"/>
      <point x="801" y="716" type="curve" smooth="yes"/>
      <point x="675" y="0" type="line"/>
      <point x="860" y="0" type="line"/>
      <point x="986" y="715" type="line" smooth="yes"/>
      <point x="1031" y="973"/>
      <point x="937" y="1102"/>
      <point x="709" y="1102" type="curve" smooth="yes"/>
      <point x="577" y="1102"/>
      <point x="462" y="1052"/>
      <point x="362" y="951" type="curve"/>
      <point x="405" y="1196" type="line"/>
      <point x="795" y="1536" type="line"/>
      <point x="610" y="1536" type="line"/>
      <point x="227" y="1238" type="line"/>
    </contour>
    <contour>
      <point x="508" y="1472" type="line"/>
      <point x="263" y="1766" type="line"/>
      <point x="39" y="1766" type="line"/>
      <point x="359" y="1472" type="line"/>
    </contour>
  </outline>
</glyph>
<glyph name="ga.base" format="2">
  <advance width="958"/>
  <anchor x="667" y="10" name="haa"/>
  <anchor x="433" y="-44" name="haa.acute"/>
  <anchor x="372" y="1367" name="hat"/>
  <anchor x="305" y="1316" name="hat.left"/>
  <anchor x="485" y="569" name="he.left.outer"/>
  <anchor x="520" y="40" name="hee"/>
  <anchor x="611" y="110" name="hi"/>
  <anchor x="365" y="704" name="ho.ring"/>
  <anchor x="706" y="638" name="hu"/>
  <anchor x="475" y="0" name="hwa"/>
  <anchor x="362" y="1082" name="neck"/>
  <anchor x="193" y="1110" name="neck.left"/>
  <anchor x="76" y="1305" name="nose"/>
  <anchor x="-85" y="1085" name="nose.extend"/>
  <anchor x="424" y="1110" name="ring"/>
  <anchor x="473" y="1" name="xwaa"/>
  <outline>
    <contour>
      <point x="397" y="0" type="line"/>
      <point x="583" y="0" type="line"/>
      <point x="681" y="558" type="line" smooth="yes"/>
      <point x="740" y="895"/>
      <point x="646" y="1102"/>
      <point x="395" y="1102" type="curve" smooth="yes"/>
      <point x="99" y="1102" type="line"/>
      <point x="74" y="961" type="line"/>
      <point x="370" y="961" type="line"/>
      <point x="540" y="949"/>
      <point x="539" y="812"/>
      <point x="496" y="565" type="curve" smooth="yes"/>
    </contour>
  </outline>
</glyph>
<glyph name="la.base.cap" format="2">
  <advance width="1304"/>
  <anchor x="1023" y="-8" name="haa"/>
  <anchor x="970" y="47" name="hee"/>
  <anchor x="1077" y="109" name="hi"/>
  <anchor x="1314" y="1116" name="ho.ring"/>
  <anchor x="247" y="665" name="ho.ring.uniq"/>
  <anchor x="813" y="1081" name="hu"/>
  <anchor x="992" y="-32" name="hwa"/>
  <outline>
    <contour>
      <point x="-163" y="0" type="line"/>
      <point x="46" y="0" type="line"/>
      <point x="644" y="1041" type="line"/>
      <point x="876" y="0" type="line"/>
      <point x="1086" y="0" type="line"/>
      <point x="716" y="1591" type="line"/>
      <point x="578" y="1532" type="line"/>
      <point x="616" y="1296" type="line"/>
    </contour>
  </outline>
</glyph>
<glyph name="pa.base" format="2">
  <advance width="860"/>
  <anchor x="484" y="62" name="haa"/>
  <anchor x="215" y="-10" name="haa.acute"/>
  <anchor x="463" y="1339" name="hat"/>
  <anchor x="426" y="1167" name="he.acute.top"/>
  <anchor x="162" y="111" name="he.left.outer"/>
  <anchor x="283" y="40" name="hee"/>
  <anchor x="369" y="110" name="hi"/>
  <anchor x="719" y="1274" name="ho.ring"/>
  <anchor x="456" y="669" name="hu"/>
  <anchor x="242" y="-20" name="hwa"/>
  <anchor x="429" y="1082" name="neck"/>
  <outline>
    <contour>
      <point x="151" y="0" type="line"/>
      <point x="336" y="0" type="line"/>
      <point x="502" y="939" type="line"/>
      <point x="764" y="939" type="line"/>
      <point x="789" y="1082" type="line"/>
      <point x="85" y="1082" type="line"/>
      <point x="60" y="939" type="line"/>
      <point x="317" y="939" type="line"/>
    </contour>
  </outline>
</glyph>
<glyph name="ra.base" format="2">
  <advance width="1217"/>
  <anchor x="688" y="101" name="fa"/>
  <anchor x="569" y="-63" name="haa"/>
  <anchor x="624" y="-51" name="haa.acute"/>
  <anchor x="621" y="961" name="hat"/>
  <anchor x="364.375" y="1041" name="hat.left"/>
  <anchor x="1000" y="28" name="hee"/>
  <anchor x="1182" y="900" name="ho.ring"/>
  <anchor x="552" y="-150" name="hu"/>
  <anchor x="594" y="4" name="hwa"/>
  <anchor x="1008.129" y="305" name="ra"/>
  <anchor x="718" y="235" name="raa"/>
  <anchor x="927" y="194" name="ri"/>
  <outline>
    <contour>
      <point x="485" y="-20" type="curve"/>
      <point x="969" y="-15" type="line"/>
      <point x="993" y="125" type="line"/>
      <point x="510" y="125" type="line"/>
      <point x="360" y="131"/>
      <point x="337" y="255"/>
      <point x="383" y="517" type="curve" smooth="yes"/>
      <point x="482" y="1082" type="line"/>
      <point x="297" y="1082" type="line"/>
      <point x="199" y="524" type="line" smooth="yes"/>
      <point x="140" y="187"/>
      <point x="192" y="-20"/>
    </contour>
  </outline>
</glyph>
<glyph name="sa.base" format="2">
  <advance width="1895"/>
  <anchor x="1268" y="-40" name="haa"/>
  <anchor x="669" y="-94" name="he.acute.bottom"/>
  <anchor x="1374" y="0" name="hee"/>
  <anchor x="1291" y="-301" name="hi"/>
  <anchor x="129" y="-25" name="ho"/>
  <anchor x="1625" y="701" name="hu"/>
  <anchor x="1286" y="-30" name="hwa"/>
  <outline>
    <contour>
      <point x="365" y="-20" type="curve" smooth="yes"/>
      <point x="522" y="-20"/>
      <point x="650" y="50"/>
      <point x="740" y="154" type="curve"/>
      <point x="815" y="38"/>
      <point x="872" y="-25"/>
      <point x="1109" y="-20" type="curve" smooth="yes"/>
      <point x="1286" y="-16"/>
      <point x="1527" y="114"/>
      <point x="1569" y="373" type="curve" smooth="yes"/>
      <point x="1684" y="1082" type="line"/>
      <point x="1499" y="1082" type="line"/>
      <point x="1384" y="373" type="line" smooth="yes"/>
      <point x="1354" y="189"/>
      <point x="1230" y="137"/>
      <point x="1113" y="137" type="curve" smooth="yes"/>
      <point x="959" y="137"/>
      <point x="896" y="216"/>
      <point x="924" y="373" type="curve" smooth="yes"/>
      <point x="1049" y="1082" type="line"/>
      <point x="863" y="1082" type="line"/>
      <point x="736" y="364" type="line" smooth="yes"/>
      <point x="711" y="224"/>
      <point x="583" y="137"/>
      <point x="446" y="137" type="curve" smooth="yes"/>
      <point x="279" y="137"/>
      <point x="229" y="213"/>
      <point x="256" y="368" type="curve" smooth="yes"/>
      <point x="382" y="1082" type="line"/>
      <point x="197" y="1082" type="line"/>
      <point x="69" y="357" type="line" smooth="yes"/>
      <point x="25" y="106"/>
      <point x="128" y="-20"/>
    </contour>
  </outline>
</glyph>
<glyph name="tsa.base" format="2">
  <advance width="1061"/>
  <anchor x="719" y="-29" name="haa"/>
  <anchor x="604" y="1353" name="hat"/>
  <anchor x="1137" y="788" name="he"/>
  <anchor x="660" y="50" name="hee"/>
  <anchor x="756" y="110" name="hi"/>
  <anchor x="38" y="-9" name="ho"/>
  <anchor x="842" y="519" name="hu"/>
  <anchor x="691" y="-30" name="hwa"/>
  <anchor x="573" y="1115" name="neck"/>
  <outline>
    <contour>
      <point x="-45" y="0" type="line"/>
      <point x="140" y="0" type="line"/>
      <point x="191" y="290" type="line" smooth="yes"/>
      <point x="208" y="385"/>
      <point x="291" y="538"/>
      <point x="461" y="538" type="curve" smooth="yes"/>
      <point x="637" y="538"/>
      <point x="669" y="384"/>
      <point x="652" y="287" type="curve" smooth="yes"/>
      <point x="601" y="0" type="line"/>
      <point x="786" y="0" type="line"/>
      <point x="839" y="300" type="line" smooth="yes"/>
      <point x="860" y="416"/>
      <point x="821" y="494"/>
      <point x="716" y="551" type="curve"/>
      <point x="835" y="608"/>
      <point x="899" y="683"/>
      <point x="917" y="788" type="curve" smooth="yes"/>
      <point x="948" y="965"/>
      <point x="806" y="1105"/>
      <point x="573" y="1105" type="curve" smooth="yes"/>
      <point x="368" y="1105"/>
      <point x="140" y="990"/>
      <point x="104" y="785" type="curve" smooth="yes"/>
      <point x="84" y="676"/>
      <point x="127" y="605"/>
      <point x="216" y="551" type="curve"/>
      <point x="95" y="494"/>
      <point x="29" y="417"/>
      <point x="9" y="303" type="curve" smooth="yes"/>
    </contour>
    <contour>
      <point x="477" y="632" type="curve" smooth="yes"/>
      <point x="343" y="632"/>
      <point x="273" y="693"/>
      <point x="287" y="772" type="curve" smooth="yes"/>
      <point x="305" y="872"/>
      <point x="419" y="950"/>
      <point x="533" y="950" type="curve" smooth="yes"/>
      <point x="660" y="950"/>
      <point x="746" y="870"/>
      <point x="729" y="774" type="curve" smooth="yes"/>
      <point x="715" y="698"/>
      <point x="639" y="632"/>
    </contour>
  </outline>
</glyph>
<glyph name="tsa.belt.cap" format="2">
  <advance width="1453"/>
  <anchor x="405" y="550" name="_tsa.belt"/>
  <outline>
    <contour>
      <point x="194" y="651" type="line"/>
      <point x="1029" y="651" type="line"/>
      <point x="1056" y="802" type="line"/>
      <point x="221" y="802" type="line"/>
    </contour>
  </outline>
</glyph>
<glyph name="wa.base" format="2">
  <advance width="1634"/>
  <anchor x="660" y="-20" name="haa"/>
  <anchor x="525" y="-130" name="haa.acute"/>
  <anchor x="918" y="1363" name="hat"/>
  <anchor x="842" y="1232" name="he.acute.top"/>
  <anchor x="679" y="0" name="hee"/>
  <anchor x="680" y="-309" name="hi"/>
  <anchor x="1158" y="1330" name="ho.ring"/>
  <anchor x="1405" y="743" name="hu"/>
  <anchor x="610" y="-40" name="hwa"/>
  <anchor x="823" y="1092" name="neck"/>
  <outline>
    <contour>
      <point x="376" y="-20" type="curve" smooth="yes"/>
      <point x="430" y="-20"/>
      <point x="478" y="-16"/>
      <point x="525" y="0" type="curve"/>
      <point x="740" y="0" type="line"/>
      <point x="778" y="-13"/>
      <point x="821" y="-20"/>
      <point x="871" y="-20" type="curve" smooth="yes"/>
      <point x="1122" y="-20"/>
      <point x="1335" y="205"/>
      <point x="1396" y="550" type="curve" smooth="yes"/>
      <point x="1455" y="882"/>
      <point x="1322" y="1102"/>
      <point x="1067" y="1102" type="curve" smooth="yes"/>
      <point x="1017" y="1102"/>
      <point x="970" y="1095"/>
      <point x="927" y="1082" type="curve"/>
      <point x="716" y="1082" type="line"/>
      <point x="676" y="1097"/>
      <point x="629" y="1102"/>
      <point x="576" y="1102" type="curve" smooth="yes"/>
      <point x="321" y="1102"/>
      <point x="110" y="882"/>
      <point x="49" y="536" type="curve" smooth="yes"/>
      <point x="-10" y="205"/>
      <point x="125" y="-20"/>
    </contour>
    <contour>
      <point x="449" y="137" type="curve" smooth="yes"/>
      <point x="270" y="137"/>
      <point x="189" y="284"/>
      <point x="232" y="529" type="curve" smooth="yes"/>
      <point x="281" y="804"/>
      <point x="413" y="945"/>
      <point x="594" y="945" type="curve" smooth="yes"/>
      <point x="629" y="945"/>
      <point x="681" y="940"/>
      <point x="709" y="931" type="curve"/>
      <point x="574" y="163" type="line"/>
      <point x="538" y="147"/>
      <point x="482" y="137"/>
    </contour>
    <contour>
      <point x="811" y="137" type="curve" smooth="yes"/>
      <point x="794" y="135"/>
      <point x="761" y="151"/>
      <point x="746" y="156" type="curve"/>
      <point x="884" y="942" type="line"/>
      <point x="923" y="944"/>
      <point x="958" y="942"/>
      <point x="990" y="936" type="curve" smooth="yes"/>
      <point x="1168" y="904"/>
      <point x="1249" y="762"/>
      <point x="1207" y="529" type="curve" smooth="yes"/>
      <point x="1164" y="284"/>
      <point x="993" y="158"/>
    </contour>
  </outline>
</glyph>
<glyph name="ya.base.cap" format="2">
  <advance width="1292"/>
  <anchor x="89" y="10" name="da.caps"/>
  <anchor x="952" y="14" name="haa"/>
  <anchor x="990" y="1642" name="hat.caps"/>
  <anchor x="1392" y="1009" name="he"/>
  <anchor x="318" y="1466" name="he.left.outer"/>
  <anchor x="933" y="32" name="hee"/>
  <anchor x="1021" y="75" name="hi"/>
  <anchor x="58" y="-24" name="ho"/>
  <anchor x="976" y="329" name="hu"/>
  <anchor x="919" y="-52" name="hwa"/>
  <anchor x="711" y="1480" name="neck.caps"/>
  <outline>
    <contour>
      <point x="-22" y="0" type="line"/>
      <point x="170" y="0" type="line"/>
      <point x="271" y="570" type="line"/>
      <point x="614" y="570" type="line" smooth="yes"/>
      <point x="943" y="570"/>
      <point x="1154" y="728"/>
      <point x="1203" y="1011" type="curve" smooth="yes"/>
      <point x="1251" y="1279"/>
      <point x="1091" y="1456"/>
      <point x="772" y="1456" type="curve" smooth="yes"/>
      <point x="235" y="1456" type="line"/>
    </contour>
    <contour>
      <point x="298" y="727" type="line"/>
      <point x="399" y="1298" type="line"/>
      <point x="755" y="1298" type="line" smooth="yes"/>
      <point x="946" y="1298"/>
      <point x="1042" y="1182"/>
      <point x="1011" y="1009" type="curve" smooth="yes"/>
      <point x="979" y="826"/>
      <point x="849" y="727"/>
      <point x="643" y="727" type="curve" smooth="yes"/>
    </contour>
  </outline>
</glyph>
<glyph name="ya.base" format="2">
  <advance width="1111"/>
  <anchor x="-157" y="154" name="da"/>
  <anchor x="548" y="-139" name="di"/>
  <anchor x="556" y="234" name="du"/>
  <anchor x="576" y="-10" name="haa"/>
  <anchor x="272" y="-66" name="haa.acute"/>
  <anchor x="641" y="1361" name="hat"/>
  <anchor x="1171" y="756" name="he"/>
  <anchor x="388" y="1080" name="he.left.outer"/>
  <anchor x="714" y="23" name="hee"/>
  <anchor x="644" y="11" name="hha"/>
  <anchor x="455" y="-270" name="hi"/>
  <anchor x="-60" y="-10" name="ho"/>
  <anchor x="590" y="199" name="hu"/>
  <anchor x="540" y="-20" name="hwa"/>
  <anchor x="637" y="1112" name="neck"/>
  <anchor x="17" y="74" name="ye"/>
  <anchor x="180" y="1" name="ye.extend"/>
  <anchor x="278" y="280" name="yee"/>
  <anchor x="195" y="381" name="yi"/>
  <anchor x="225" y="225" name="yu"/>
  <outline>
    <contour>
      <point x="103" y="0" type="line"/>
      <point x="288" y="0" type="line"/>
      <point x="224" y="488" type="line"/>
      <point x="798" y="488" type="line" smooth="yes"/>
      <point x="849" y="488"/>
      <point x="893" y="519"/>
      <point x="907" y="565" type="curve" smooth="yes"/>
      <point x="1012" y="907"/>
      <point x="898" y="1102"/>
      <point x="617" y="1102" type="curve" smooth="yes"/>
      <point x="445" y="1102"/>
      <point x="270" y="1001"/>
      <point x="159" y="833" type="curve" smooth="yes"/>
      <point x="103" y="748"/>
      <point x="45" y="619"/>
      <point x="55" y="512" type="curve" smooth="yes"/>
    </contour>
    <contour>
      <point x="242" y="600" type="line"/>
      <point x="302" y="806"/>
      <point x="441" y="950"/>
      <point x="590" y="950" type="curve" smooth="yes"/>
      <point x="765" y="950"/>
      <point x="808" y="802"/>
      <point x="753" y="600" type="curve"/>
    </contour>
  </outline>
</glyph>
